<svg width="24" height="24" viewBox="0 0 24 24" fill="none" xmlns="http://www.w3.org/2000/svg">
<mask id="mask0_3_166" style="mask-type:alpha" maskUnits="userSpaceOnUse" x="0" y="0" width="24" height="24">
<rect width="24" height="24" fill="#D9D9D9"/>
</mask>
<g mask="url(#mask0_3_166)">
<path d="M11.4351 21.9763C10.6041 21.9763 9.89771 21.6855 9.316 21.1038C8.73428 20.5221 8.44342 19.8157 8.44342 18.9847H10.4379C10.4379 19.2672 10.5334 19.504 10.7246 19.6952C10.9157 19.8863 11.1526 19.9819 11.4351 19.9819C11.7177 19.9819 11.9545 19.8863 12.1456 19.6952C12.3368 19.504 12.4323 19.2672 12.4323 18.9847C12.4323 18.7021 12.3368 18.4653 12.1456 18.2741C11.9545 18.083 11.7177 17.9874 11.4351 17.9874H1.96143V15.993H11.4351C12.2661 15.993 12.9725 16.2838 13.5542 16.8655C14.1359 17.4473 14.4268 18.1536 14.4268 18.9847C14.4268 19.8157 14.1359 20.5221 13.5542 21.1038C12.9725 21.6855 12.2661 21.9763 11.4351 21.9763ZM1.96143 12.004V10.0096H15.424C15.8562 10.0096 16.2135 9.86831 16.4961 9.58576C16.7786 9.30322 16.9199 8.94588 16.9199 8.51374C16.9199 8.08161 16.7786 7.72427 16.4961 7.44172C16.2135 7.15917 15.8562 7.0179 15.424 7.0179C14.9919 7.0179 14.6346 7.15917 14.352 7.44172C14.0695 7.72427 13.9282 8.08161 13.9282 8.51374H11.9337C11.9337 7.53313 12.2703 6.70626 12.9434 6.03313C13.6166 5.36 14.4434 5.02344 15.424 5.02344C16.4046 5.02344 17.2315 5.36 17.9046 6.03313C18.5778 6.70626 18.9143 7.53313 18.9143 8.51374C18.9143 9.49435 18.5778 10.3212 17.9046 10.9944C17.2315 11.6675 16.4046 12.004 15.424 12.004H1.96143ZM18.4157 19.9819V17.9874C18.8479 17.9874 19.2052 17.8462 19.4877 17.5636C19.7703 17.2811 19.9116 16.9237 19.9116 16.4916C19.9116 16.0594 19.7703 15.7021 19.4877 15.4196C19.2052 15.137 18.8479 14.9957 18.4157 14.9957H1.96143V13.0013H18.4157C19.3963 13.0013 20.2232 13.3378 20.8963 14.011C21.5695 14.6841 21.906 15.511 21.906 16.4916C21.906 17.4722 21.5695 18.2991 20.8963 18.9722C20.2232 19.6453 19.3963 19.9819 18.4157 19.9819Z" fill="currentColor"/>
</g>
</svg>
