<svg width="24" height="24" viewBox="0 0 24 24" fill="none" xmlns="http://www.w3.org/2000/svg">
<mask id="mask0_3_207" style="mask-type:alpha" maskUnits="userSpaceOnUse" x="0" y="0" width="24" height="24">
<rect width="24" height="24" fill="#D9D9D9"/>
</mask>
<g mask="url(#mask0_3_207)">
<path d="M12.275 19.8852C12.475 19.8681 12.6458 19.7868 12.7875 19.6413C12.9292 19.4958 13 19.3204 13 19.1151C13 18.8755 12.925 18.6829 12.775 18.5375C12.625 18.392 12.4333 18.3278 12.2 18.3449C11.5167 18.3963 10.7917 18.2038 10.025 17.7674C9.25833 17.331 8.775 16.5395 8.575 15.3928C8.54167 15.2046 8.45417 15.0506 8.3125 14.9308C8.17083 14.811 8.00833 14.7511 7.825 14.7511C7.59167 14.7511 7.4 14.8409 7.25 15.0206C7.1 15.2003 7.05 15.4099 7.1 15.6495C7.38333 17.2069 8.05 18.3193 9.1 18.9867C10.15 19.6541 11.2083 19.9536 12.275 19.8852ZM12 22.9657C9.71667 22.9657 7.8125 22.1613 6.2875 20.5526C4.7625 18.9439 4 16.9416 4 14.5457C4 12.8343 4.6625 10.9732 5.9875 8.96236C7.3125 6.9515 9.31667 4.77378 12 2.4292C14.6833 4.77378 16.6875 6.9515 18.0125 8.96236C19.3375 10.9732 20 12.8343 20 14.5457C20 16.9416 19.2375 18.9439 17.7125 20.5526C16.1875 22.1613 14.2833 22.9657 12 22.9657ZM12 20.912C13.7333 20.912 15.1667 20.3087 16.3 19.1022C17.4333 17.8957 18 16.3769 18 14.5457C18 13.2964 17.4958 11.8845 16.4875 10.3101C15.4792 8.7356 13.9833 7.01567 12 5.15028C10.0167 7.01567 8.52083 8.7356 7.5125 10.3101C6.50417 11.8845 6 13.2964 6 14.5457C6 16.3769 6.56667 17.8957 7.7 19.1022C8.83333 20.3087 10.2667 20.912 12 20.912Z" fill="white"/>
</g>
</svg>
