<svg width="180" height="180" viewBox="0 0 180 180" fill="none" xmlns="http://www.w3.org/2000/svg">
<circle cx="101.753" cy="73.1517" r="53.4642" fill="#E8AA55"/>
<path d="M139.432 94.5635C125.989 94.5635 115.091 105.49 115.091 118.968C115.091 119.891 115.145 120.802 115.244 121.698C107.128 122.09 100.669 128.812 100.669 137.046C100.669 145.228 107.048 151.916 115.092 152.384V152.411H161.97V152.388C172.007 151.916 180 143.609 180 133.43C180 123.732 172.746 115.733 163.381 114.59C161.324 103.201 151.384 94.5637 139.432 94.5635Z" fill="#323232"/>
<path d="M139.508 97.8677C127.186 97.8677 117.196 107.857 117.196 120.18C117.196 121.023 117.245 121.855 117.336 122.673C109.896 123.031 103.974 129.177 103.974 136.706C103.974 144.186 109.821 150.3 117.195 150.728V150.754H159.268C159.293 150.754 159.318 150.755 159.342 150.755C159.367 150.755 159.392 150.754 159.417 150.754H160.167V150.735C169.368 150.304 176.696 142.709 176.696 133.401C176.696 124.535 170.046 117.222 161.462 116.176C159.576 105.764 150.464 97.8677 139.508 97.8677Z" fill="#D9D9D9"/>
<path d="M63.4971 66.9688C84.5382 66.9688 101.596 84.0702 101.596 105.166C101.596 106.611 101.512 108.036 101.356 109.439C114.061 110.051 124.174 120.573 124.174 133.462C124.174 146.27 114.188 156.737 101.596 157.469V157.511H100.264C100.238 157.511 100.212 157.512 100.187 157.512C100.161 157.512 100.135 157.511 100.109 157.511H29.7852C29.7341 157.511 29.6829 157.513 29.6318 157.513C29.5807 157.513 29.5296 157.511 29.4785 157.511H28.2207V157.478C12.5109 156.739 0.000252611 143.737 0 127.804C0 112.625 11.3537 100.106 26.0107 98.3154C29.2304 80.4889 44.7886 66.9689 63.4971 66.9688Z" fill="#323232"/>
<path d="M63.3804 72.1431C82.6681 72.1431 98.3042 87.7792 98.3042 107.067C98.3042 108.387 98.2272 109.69 98.0845 110.972C109.729 111.533 118.998 121.153 118.998 132.936C118.997 144.645 109.845 154.215 98.3042 154.885V154.924H32.4761C32.4294 154.925 32.3822 154.926 32.3354 154.926C32.2889 154.926 32.2423 154.925 32.1958 154.924H31.0444V154.894C16.6426 154.22 5.17337 142.332 5.17334 127.763C5.17334 113.885 15.5816 102.439 29.0181 100.802C31.9698 84.5041 46.2313 72.1433 63.3804 72.1431Z" fill="#D9D9D9"/>
</svg>
