<svg width="24" height="24" viewBox="0 0 24 24" fill="none" xmlns="http://www.w3.org/2000/svg">
<mask id="mask0_3_199" style="mask-type:alpha" maskUnits="userSpaceOnUse" x="0" y="0" width="24" height="24">
<rect width="24" height="24" fill="#D9D9D9"/>
</mask>
<g mask="url(#mask0_3_199)">
<path d="M13.95 22.863C13.7 22.9999 13.4458 23.0213 13.1875 22.9271C12.9292 22.833 12.7333 22.6576 12.6 22.4009L11.1 19.3204C10.9667 19.0637 10.9458 18.8027 11.0375 18.5375C11.1292 18.2722 11.3 18.0711 11.55 17.9342C11.8 17.7973 12.0542 17.7759 12.3125 17.87C12.5708 17.9642 12.7667 18.1396 12.9 18.3963L14.4 21.4768C14.5333 21.7335 14.5542 21.9944 14.4625 22.2597C14.3708 22.525 14.2 22.7261 13.95 22.863ZM19.95 22.863C19.7 22.9999 19.4458 23.0213 19.1875 22.9271C18.9292 22.833 18.7333 22.6576 18.6 22.4009L17.1 19.3204C16.9667 19.0637 16.9458 18.8027 17.0375 18.5375C17.1292 18.2722 17.3 18.0711 17.55 17.9342C17.8 17.7973 18.0542 17.7759 18.3125 17.87C18.5708 17.9642 18.7667 18.1396 18.9 18.3963L20.4 21.4768C20.5333 21.7335 20.5542 21.9944 20.4625 22.2597C20.3708 22.525 20.2 22.7261 19.95 22.863ZM7.95 22.863C7.7 22.9999 7.44583 23.0213 7.1875 22.9271C6.92917 22.833 6.73333 22.6576 6.6 22.4009L5.1 19.3204C4.96667 19.0637 4.94583 18.8027 5.0375 18.5375C5.12917 18.2722 5.3 18.0711 5.55 17.9342C5.8 17.7973 6.05417 17.7759 6.3125 17.87C6.57083 17.9642 6.76667 18.1396 6.9 18.3963L8.4 21.4768C8.53333 21.7335 8.55417 21.9944 8.4625 22.2597C8.37083 22.525 8.2 22.7261 7.95 22.863ZM7.5 16.8047C5.98333 16.8047 4.6875 16.2528 3.6125 15.149C2.5375 14.0451 2 12.7145 2 11.1572C2 9.73675 2.45833 8.49601 3.375 7.43496C4.29167 6.37391 5.425 5.74926 6.775 5.56101C7.30833 4.58553 8.0375 3.81969 8.9625 3.26349C9.8875 2.7073 10.9 2.4292 12 2.4292C13.5 2.4292 14.8042 2.92122 15.9125 3.90526C17.0208 4.88929 17.6917 6.1172 17.925 7.58898C19.075 7.69167 20.0417 8.17941 20.825 9.05221C21.6083 9.925 22 10.9689 22 12.184C22 13.4675 21.5625 14.5585 20.6875 15.457C19.8125 16.3555 18.75 16.8047 17.5 16.8047H7.5ZM7.5 14.7511H17.5C18.2 14.7511 18.7917 14.5029 19.275 14.0066C19.7583 13.5103 20 12.9028 20 12.184C20 11.4652 19.7583 10.8577 19.275 10.3614C18.7917 9.86511 18.2 9.61696 17.5 9.61696H16V8.59013C16 7.46063 15.6083 6.49371 14.825 5.68936C14.0417 4.88502 13.1 4.48284 12 4.48284C11.2 4.48284 10.4708 4.70532 9.8125 5.15028C9.15417 5.59524 8.65833 6.19422 8.325 6.94722L8.075 7.56331H7.45C6.5 7.59754 5.6875 7.96121 5.0125 8.65431C4.3375 9.34742 4 10.1817 4 11.1572C4 12.1498 4.34167 12.9969 5.025 13.6986C5.70833 14.4002 6.53333 14.7511 7.5 14.7511Z" fill="white"/>
</g>
</svg>
