<svg width="24" height="24" viewBox="0 0 24 24" fill="none" xmlns="http://www.w3.org/2000/svg">
<mask id="mask0_3_248" style="mask-type:alpha" maskUnits="userSpaceOnUse" x="0" y="0" width="24" height="24">
<rect width="24" height="24" fill="#D9D9D9"/>
</mask>
<g mask="url(#mask0_3_248)">
<path d="M12.1 22.9657C10.7 22.9657 9.3875 22.6918 8.1625 22.1442C6.9375 21.5966 5.87083 20.8564 4.9625 19.9237C4.05417 18.991 3.33333 17.8957 2.8 16.6379C2.26667 15.38 2 14.0323 2 12.5947C2 10.0961 2.775 7.89275 4.325 5.98457C5.875 4.07639 7.85 2.89127 10.25 2.4292C9.95 4.12346 10.0417 5.77921 10.525 7.39645C11.0083 9.0137 11.8417 10.4299 13.025 11.6449C14.2083 12.86 15.5875 13.7157 17.1625 14.212C18.7375 14.7083 20.35 14.8024 22 14.4944C21.5667 16.9587 20.4167 18.9867 18.55 20.5783C16.6833 22.1699 14.5333 22.9657 12.1 22.9657ZM12.1 20.912C13.5667 20.912 14.925 20.5355 16.175 19.7825C17.425 19.0295 18.4083 17.9941 19.125 16.6764C17.6917 16.5395 16.3333 16.1672 15.05 15.5597C13.7667 14.9522 12.6167 14.1264 11.6 13.0825C10.5833 12.0385 9.775 10.8577 9.175 9.53995C8.575 8.22219 8.21667 6.82742 8.1 5.35564C6.81667 6.09153 5.8125 7.10552 5.0875 8.39761C4.3625 9.68969 4 11.0887 4 12.5947C4 14.9051 4.7875 16.8689 6.3625 18.4861C7.9375 20.1034 9.85 20.912 12.1 20.912Z" fill="white"/>
</g>
</svg>
