<svg width="139" height="136" viewBox="0 0 139 136" fill="none" xmlns="http://www.w3.org/2000/svg">
<mask id="path-1-inside-1_193_256" fill="white">
<path d="M70.2129 21C88.3789 21 103.43 34.3355 106.111 51.751C123.408 52.2647 137.272 66.4462 137.272 83.8672C137.272 101.145 123.634 115.236 106.536 115.967V116H31.0957V115.967C13.9977 115.235 0.360352 101.145 0.360352 83.8672C0.360563 66.1212 14.7471 51.7354 32.4932 51.7354C33.1024 51.7354 33.7077 51.7536 34.3086 51.7871C36.9746 34.354 52.0345 21.0002 70.2129 21Z"/>
</mask>
<path d="M70.2129 21C88.3789 21 103.43 34.3355 106.111 51.751C123.408 52.2647 137.272 66.4462 137.272 83.8672C137.272 101.145 123.634 115.236 106.536 115.967V116H31.0957V115.967C13.9977 115.235 0.360352 101.145 0.360352 83.8672C0.360563 66.1212 14.7471 51.7354 32.4932 51.7354C33.1024 51.7354 33.7077 51.7536 34.3086 51.7871C36.9746 34.354 52.0345 21.0002 70.2129 21Z" fill="url(#paint0_linear_193_256)"/>
<path d="M70.2129 21L70.2129 20L70.2129 20L70.2129 21ZM106.111 51.751L105.123 51.9031L105.25 52.7258L106.082 52.7505L106.111 51.751ZM137.272 83.8672L138.272 83.8672L138.272 83.8672L137.272 83.8672ZM106.536 115.967L106.493 114.968L105.536 115.009V115.967H106.536ZM106.536 116V117H107.536V116H106.536ZM31.0957 116H30.0957V117H31.0957V116ZM31.0957 115.967H32.0957V115.009L31.1384 114.968L31.0957 115.967ZM0.360352 83.8672L-0.639648 83.8672V83.8672H0.360352ZM32.4932 51.7354L32.4932 50.7354H32.4932V51.7354ZM34.3086 51.7871L34.253 52.7856L35.1598 52.8361L35.2971 51.9383L34.3086 51.7871ZM70.2129 21V22C87.8778 22 102.516 34.968 105.123 51.9031L106.111 51.751L107.1 51.5988C104.344 33.703 88.8799 20 70.2129 20V21ZM106.111 51.751L106.082 52.7505C122.839 53.2482 136.272 66.9886 136.272 83.8672L137.272 83.8672L138.272 83.8672C138.272 65.9038 123.976 51.2811 106.141 50.7514L106.111 51.751ZM137.272 83.8672H136.272C136.272 100.607 123.059 114.259 106.493 114.968L106.536 115.967L106.579 116.966C124.21 116.212 138.272 101.684 138.272 83.8672H137.272ZM106.536 115.967H105.536V116H106.536H107.536V115.967H106.536ZM106.536 116V115H31.0957V116V117H106.536V116ZM31.0957 116H32.0957V115.967H31.0957H30.0957V116H31.0957ZM31.0957 115.967L31.1384 114.968C14.5732 114.259 1.36035 100.607 1.36035 83.8672H0.360352H-0.639648C-0.639648 101.683 13.4222 116.212 31.053 116.966L31.0957 115.967ZM0.360352 83.8672L1.36035 83.8672C1.36056 66.6735 15.2994 52.7354 32.4932 52.7354V51.7354V50.7354C14.1948 50.7354 -0.639431 65.5689 -0.639648 83.8672L0.360352 83.8672ZM32.4932 51.7354L32.4931 52.7354C33.0825 52.7354 33.6691 52.753 34.253 52.7856L34.3086 51.7871L34.3642 50.7887C33.7463 50.7542 33.1224 50.7354 32.4932 50.7354L32.4932 51.7354ZM34.3086 51.7871L35.2971 51.9383C37.8896 34.986 52.5359 22.0002 70.2129 22L70.2129 21L70.2129 20C51.5331 20.0002 36.0596 33.722 33.3201 51.6359L34.3086 51.7871Z" fill="url(#paint1_linear_193_256)" mask="url(#path-1-inside-1_193_256)"/>
<defs>
<linearGradient id="paint0_linear_193_256" x1="66.0223" y1="48.9412" x2="79.9928" y2="82.4706" gradientUnits="userSpaceOnUse">
<stop stop-color="#B9D3EF"/>
<stop offset="1" stop-color="#7F9FC2"/>
</linearGradient>
<linearGradient id="paint1_linear_193_256" x1="56.2428" y1="81.0735" x2="68.8164" y2="116" gradientUnits="userSpaceOnUse">
<stop stop-color="#BDD6F0"/>
<stop offset="1" stop-color="#73A2D3"/>
</linearGradient>
</defs>
</svg>
