<svg width="138" height="136" viewBox="0 0 138 136" fill="none" xmlns="http://www.w3.org/2000/svg">
<mask id="path-1-inside-1_193_422" fill="white">
<path d="M70.4082 8C88.7184 8.00005 103.889 21.4414 106.592 38.9951C124.026 39.5131 138 53.8077 138 71.3672C138 88.7827 124.254 102.985 107.02 103.722V103.755H30.9795V103.722C13.7456 102.984 8.02947e-06 88.7825 0 71.3672C0 53.48 14.5005 38.9795 32.3877 38.9795C33.0019 38.9795 33.612 38.9975 34.2178 39.0312C36.9052 21.4597 52.0853 8 70.4082 8Z"/>
</mask>
<path d="M70.4082 8C88.7184 8.00005 103.889 21.4414 106.592 38.9951C124.026 39.5131 138 53.8077 138 71.3672C138 88.7827 124.254 102.985 107.02 103.722V103.755H30.9795V103.722C13.7456 102.984 8.02947e-06 88.7825 0 71.3672C0 53.48 14.5005 38.9795 32.3877 38.9795C33.0019 38.9795 33.612 38.9975 34.2178 39.0312C36.9052 21.4597 52.0853 8 70.4082 8Z" fill="url(#paint0_linear_193_422)"/>
<path d="M70.4082 8L70.4082 7H70.4082V8ZM106.592 38.9951L105.603 39.1473L105.73 39.97L106.562 39.9947L106.592 38.9951ZM138 71.3672L139 71.3672V71.3672H138ZM107.02 103.722L106.977 102.723L106.02 102.764V103.722H107.02ZM107.02 103.755V104.755H108.02V103.755H107.02ZM30.9795 103.755H29.9795V104.755H30.9795V103.755ZM30.9795 103.722H31.9795V102.764L31.0222 102.723L30.9795 103.722ZM0 71.3672L-1 71.3672L-1 71.3672L0 71.3672ZM32.3877 38.9795L32.3877 37.9795H32.3877V38.9795ZM34.2178 39.0312L34.1622 40.0297L35.069 40.0802L35.2063 39.1824L34.2178 39.0312ZM70.4082 8L70.4082 9C88.2174 9.00005 102.975 22.0738 105.603 39.1473L106.592 38.9951L107.58 38.8429C104.803 20.8089 89.2195 7.00005 70.4082 7L70.4082 8ZM106.592 38.9951L106.562 39.9947C123.457 40.4967 137 54.3501 137 71.3672H138H139C139 53.2653 124.594 38.5296 106.621 37.9956L106.592 38.9951ZM138 71.3672L137 71.3672C137 88.2446 123.678 102.008 106.977 102.723L107.02 103.722L107.062 104.721C124.829 103.961 139 89.3209 139 71.3672L138 71.3672ZM107.02 103.722H106.02V103.755H107.02H108.02V103.722H107.02ZM107.02 103.755V102.755H30.9795V103.755V104.755H107.02V103.755ZM30.9795 103.755H31.9795V103.722H30.9795H29.9795V103.755H30.9795ZM30.9795 103.722L31.0222 102.723C14.3211 102.008 1.00001 88.2444 1 71.3672L0 71.3672L-1 71.3672C-0.999992 89.3206 13.1702 103.961 30.9367 104.721L30.9795 103.722ZM0 71.3672H1C1 54.0323 15.0528 39.9795 32.3877 39.9795V38.9795V37.9795C13.9482 37.9795 -1 52.9277 -1 71.3672H0ZM32.3877 38.9795L32.3877 39.9795C32.9823 39.9795 33.5739 39.9969 34.1622 40.0297L34.2178 39.0312L34.2734 38.0328C33.6501 37.9981 33.0214 37.9795 32.3877 37.9795L32.3877 38.9795ZM34.2178 39.0312L35.2063 39.1824C37.8202 22.0917 52.5866 9 70.4082 9V8V7C51.584 7 35.9902 20.8277 33.2293 38.8801L34.2178 39.0312Z" fill="url(#paint1_linear_193_422)" mask="url(#path-1-inside-1_193_422)"/>
<path d="M16.5 112.556C49.5 124.5 82 100.5 123 112.556" stroke="#6D7883" stroke-width="4" stroke-linecap="round"/>
<path d="M17 124.492C50 136.436 82.5 112.436 123.5 124.492" stroke="#6D7883" stroke-width="4" stroke-linecap="round"/>
<defs>
<linearGradient id="paint0_linear_193_422" x1="69" y1="8" x2="69" y2="103.755" gradientUnits="userSpaceOnUse">
<stop stop-color="#6D7883"/>
<stop offset="1" stop-color="#3C4957"/>
</linearGradient>
<linearGradient id="paint1_linear_193_422" x1="56.3265" y1="68.5509" x2="69" y2="103.755" gradientUnits="userSpaceOnUse">
<stop stop-color="#5E6A76"/>
<stop offset="1" stop-color="#11151A"/>
</linearGradient>
</defs>
</svg>
