<svg width="138" height="136" viewBox="0 0 138 136" fill="none" xmlns="http://www.w3.org/2000/svg">
<mask id="path-1-inside-1_193_425" fill="white">
<path d="M70.4082 1C88.7184 1.00005 103.889 14.4414 106.592 31.9951C124.026 32.5131 138 46.8077 138 64.3672C138 81.7827 124.254 95.9847 107.02 96.7217V96.7549H30.9795V96.7217C13.7456 95.9843 8.02947e-06 81.7825 0 64.3672C0 46.48 14.5005 31.9795 32.3877 31.9795C33.0019 31.9795 33.612 31.9975 34.2178 32.0312C36.9052 14.4597 52.0853 1 70.4082 1Z"/>
</mask>
<path d="M70.4082 1C88.7184 1.00005 103.889 14.4414 106.592 31.9951C124.026 32.5131 138 46.8077 138 64.3672C138 81.7827 124.254 95.9847 107.02 96.7217V96.7549H30.9795V96.7217C13.7456 95.9843 8.02947e-06 81.7825 0 64.3672C0 46.48 14.5005 31.9795 32.3877 31.9795C33.0019 31.9795 33.612 31.9975 34.2178 32.0312C36.9052 14.4597 52.0853 1 70.4082 1Z" fill="url(#paint0_linear_193_425)"/>
<path d="M70.4082 1L70.4082 0H70.4082V1ZM106.592 31.9951L105.603 32.1473L105.73 32.97L106.562 32.9947L106.592 31.9951ZM138 64.3672L139 64.3672V64.3672H138ZM107.02 96.7217L106.977 95.7226L106.02 95.7635V96.7217H107.02ZM107.02 96.7549V97.7549H108.02V96.7549H107.02ZM30.9795 96.7549H29.9795V97.7549H30.9795V96.7549ZM30.9795 96.7217H31.9795V95.7635L31.0222 95.7226L30.9795 96.7217ZM0 64.3672L-1 64.3672L-1 64.3672L0 64.3672ZM32.3877 31.9795L32.3877 30.9795H32.3877V31.9795ZM34.2178 32.0312L34.1622 33.0297L35.069 33.0802L35.2063 32.1824L34.2178 32.0312ZM70.4082 1L70.4082 2C88.2174 2.00005 102.975 15.0738 105.603 32.1473L106.592 31.9951L107.58 31.8429C104.803 13.8089 89.2195 4.98672e-05 70.4082 0L70.4082 1ZM106.592 31.9951L106.562 32.9947C123.457 33.4967 137 47.3501 137 64.3672H138H139C139 46.2653 124.594 31.5296 106.621 30.9956L106.592 31.9951ZM138 64.3672L137 64.3672C137 81.2446 123.678 95.0084 106.977 95.7226L107.02 96.7217L107.062 97.7208C124.829 96.961 139 82.3209 139 64.3672L138 64.3672ZM107.02 96.7217H106.02V96.7549H107.02H108.02V96.7217H107.02ZM107.02 96.7549V95.7549H30.9795V96.7549V97.7549H107.02V96.7549ZM30.9795 96.7549H31.9795V96.7217H30.9795H29.9795V96.7549H30.9795ZM30.9795 96.7217L31.0222 95.7226C14.3211 95.0081 1.00001 81.2444 1 64.3672L0 64.3672L-1 64.3672C-0.999992 82.3206 13.1702 96.9606 30.9367 97.7208L30.9795 96.7217ZM0 64.3672H1C1 47.0323 15.0528 32.9795 32.3877 32.9795V31.9795V30.9795C13.9482 30.9795 -1 45.9277 -1 64.3672H0ZM32.3877 31.9795L32.3877 32.9795C32.9823 32.9795 33.5739 32.9969 34.1622 33.0297L34.2178 32.0312L34.2734 31.0328C33.6501 30.9981 33.0214 30.9795 32.3877 30.9795L32.3877 31.9795ZM34.2178 32.0312L35.2063 32.1824C37.8202 15.0917 52.5866 2 70.4082 2V1V0C51.584 0 35.9902 13.8277 33.2293 31.8801L34.2178 32.0312Z" fill="url(#paint1_linear_193_425)" mask="url(#path-1-inside-1_193_425)"/>
<path d="M21.1907 108.169L25.217 106.804L27.5522 109.661L21.417 111.741L25.5173 116.758L22.0229 117.943L19.332 114.651L18.4257 117.812L14.3028 116.63L15.0888 113.889L11.1691 115.218L8.83293 112.361L15.5866 110.069L11.073 104.549L14.5683 103.364L17.1881 106.568L18.1453 103.229L22.2682 104.412L21.1907 108.169Z" fill="#CDDFF3"/>
<path d="M52.6467 119.331L56.6721 117.966L59.0083 120.823L52.8731 122.903L56.9733 127.92L53.4781 129.105L50.788 125.813L49.8817 128.974L45.7579 127.791L46.5439 125.05L42.6251 126.38L40.289 123.523L47.0426 121.231L42.5291 115.711L46.0243 114.526L48.6432 117.729L49.6004 114.391L53.7242 115.574L52.6467 119.331Z" fill="#CDDFF3"/>
<path d="M80.044 110.198L84.0691 108.834L86.4053 111.691L80.2701 113.771L84.3703 118.788L80.876 119.973L78.185 116.681L77.2787 119.842L73.1549 118.659L73.9408 115.918L70.0221 117.248L67.6862 114.39L74.4396 112.099L69.926 106.578L73.4213 105.393L76.0402 108.597L76.9974 105.259L81.1212 106.441L80.044 110.198Z" fill="#CDDFF3"/>
<path d="M100.338 123.39L104.364 122.025L106.699 124.882L100.565 126.962L104.665 131.979L101.17 133.164L98.479 129.872L97.5726 133.033L93.4497 131.851L94.2357 129.109L90.3161 130.439L87.9802 127.581L94.7335 125.29L90.22 119.77L93.7152 118.585L96.335 121.788L97.2922 118.45L101.415 119.632L100.338 123.39Z" fill="#CDDFF3"/>
<path d="M117.588 103.096L121.614 101.731L123.95 104.588L117.815 106.668L121.915 111.685L118.42 112.87L115.729 109.578L114.823 112.739L110.7 111.556L111.486 108.815L107.566 110.145L105.23 107.287L111.984 104.996L107.47 99.4754L110.965 98.2904L113.585 101.494L114.542 98.1559L118.665 99.3382L117.588 103.096Z" fill="#CDDFF3"/>
<defs>
<linearGradient id="paint0_linear_193_425" x1="69" y1="1" x2="69" y2="96.7549" gradientUnits="userSpaceOnUse">
<stop stop-color="#6D7883"/>
<stop offset="1" stop-color="#3C4957"/>
</linearGradient>
<linearGradient id="paint1_linear_193_425" x1="56.3265" y1="61.5509" x2="69" y2="96.755" gradientUnits="userSpaceOnUse">
<stop stop-color="#5E6A76"/>
<stop offset="1" stop-color="#11151A"/>
</linearGradient>
</defs>
</svg>
