<svg width="138" height="136" viewBox="0 0 138 136" fill="none" xmlns="http://www.w3.org/2000/svg">
<mask id="path-1-inside-1_193_361" fill="white">
<path d="M70.4082 3C88.7184 3.00005 103.889 16.4414 106.592 33.9951C124.026 34.5131 138 48.8077 138 66.3672C138 83.7827 124.254 97.9847 107.02 98.7217V98.7549H30.9795V98.7217C13.7456 97.9843 8.02947e-06 83.7825 0 66.3672C0 48.48 14.5005 33.9795 32.3877 33.9795C33.0019 33.9795 33.612 33.9975 34.2178 34.0312C36.9052 16.4597 52.0853 3 70.4082 3Z"/>
</mask>
<path d="M70.4082 3C88.7184 3.00005 103.889 16.4414 106.592 33.9951C124.026 34.5131 138 48.8077 138 66.3672C138 83.7827 124.254 97.9847 107.02 98.7217V98.7549H30.9795V98.7217C13.7456 97.9843 8.02947e-06 83.7825 0 66.3672C0 48.48 14.5005 33.9795 32.3877 33.9795C33.0019 33.9795 33.612 33.9975 34.2178 34.0312C36.9052 16.4597 52.0853 3 70.4082 3Z" fill="url(#paint0_linear_193_361)"/>
<path d="M70.4082 3L70.4082 2H70.4082V3ZM106.592 33.9951L105.603 34.1473L105.73 34.97L106.562 34.9947L106.592 33.9951ZM138 66.3672L139 66.3672V66.3672H138ZM107.02 98.7217L106.977 97.7226L106.02 97.7635V98.7217H107.02ZM107.02 98.7549V99.7549H108.02V98.7549H107.02ZM30.9795 98.7549H29.9795V99.7549H30.9795V98.7549ZM30.9795 98.7217H31.9795V97.7635L31.0222 97.7226L30.9795 98.7217ZM0 66.3672L-1 66.3672L-1 66.3672L0 66.3672ZM32.3877 33.9795L32.3877 32.9795H32.3877V33.9795ZM34.2178 34.0312L34.1622 35.0297L35.069 35.0802L35.2063 34.1824L34.2178 34.0312ZM70.4082 3L70.4082 4C88.2174 4.00005 102.975 17.0738 105.603 34.1473L106.592 33.9951L107.58 33.8429C104.803 15.8089 89.2195 2.00005 70.4082 2L70.4082 3ZM106.592 33.9951L106.562 34.9947C123.457 35.4967 137 49.3501 137 66.3672H138H139C139 48.2653 124.594 33.5296 106.621 32.9956L106.592 33.9951ZM138 66.3672L137 66.3672C137 83.2446 123.678 97.0084 106.977 97.7226L107.02 98.7217L107.062 99.7208C124.829 98.961 139 84.3209 139 66.3672L138 66.3672ZM107.02 98.7217H106.02V98.7549H107.02H108.02V98.7217H107.02ZM107.02 98.7549V97.7549H30.9795V98.7549V99.7549H107.02V98.7549ZM30.9795 98.7549H31.9795V98.7217H30.9795H29.9795V98.7549H30.9795ZM30.9795 98.7217L31.0222 97.7226C14.3211 97.0081 1.00001 83.2444 1 66.3672L0 66.3672L-1 66.3672C-0.999992 84.3206 13.1702 98.9606 30.9367 99.7208L30.9795 98.7217ZM0 66.3672H1C1 49.0323 15.0528 34.9795 32.3877 34.9795V33.9795V32.9795C13.9482 32.9795 -1 47.9277 -1 66.3672H0ZM32.3877 33.9795L32.3877 34.9795C32.9823 34.9795 33.5739 34.9969 34.1622 35.0297L34.2178 34.0312L34.2734 33.0328C33.6501 32.9981 33.0214 32.9795 32.3877 32.9795L32.3877 33.9795ZM34.2178 34.0312L35.2063 34.1824C37.8202 17.0917 52.5866 4 70.4082 4V3V2C51.584 2 35.9902 15.8277 33.2293 33.8801L34.2178 34.0312Z" fill="url(#paint1_linear_193_361)" mask="url(#path-1-inside-1_193_361)"/>
<rect x="27.5391" y="103.456" width="4.05882" height="32.7544" rx="2.02941" transform="rotate(30 27.5391 103.456)" fill="#4C95E3"/>
<rect x="49.4609" y="103.456" width="4.05882" height="32.7544" rx="2.02941" transform="rotate(30 49.4609 103.456)" fill="#4C95E3"/>
<rect x="71.3823" y="103.456" width="4.05882" height="32.7544" rx="2.02941" transform="rotate(30 71.3823 103.456)" fill="#4C95E3"/>
<rect x="93.3042" y="103.456" width="4.05882" height="32.7544" rx="2.02941" transform="rotate(30 93.3042 103.456)" fill="#4C95E3"/>
<rect x="115.226" y="103.456" width="4.05882" height="32.7544" rx="2.02941" transform="rotate(30 115.226 103.456)" fill="#4C95E3"/>
<defs>
<linearGradient id="paint0_linear_193_361" x1="69" y1="3" x2="69" y2="98.7549" gradientUnits="userSpaceOnUse">
<stop stop-color="#6D7883"/>
<stop offset="1" stop-color="#3C4957"/>
</linearGradient>
<linearGradient id="paint1_linear_193_361" x1="56.3265" y1="63.5509" x2="69" y2="98.755" gradientUnits="userSpaceOnUse">
<stop stop-color="#5E6A76"/>
<stop offset="1" stop-color="#11151A"/>
</linearGradient>
</defs>
</svg>
