<svg width="138" height="136" viewBox="0 0 138 136" fill="none" xmlns="http://www.w3.org/2000/svg">
<mask id="path-1-inside-1_193_380" fill="white">
<path d="M70.4082 10C88.7184 10 103.889 23.4414 106.592 40.9951C124.026 41.5131 138 55.8077 138 73.3672C138 90.7827 124.254 104.985 107.02 105.722V105.755H30.9795V105.722C13.7456 104.984 8.02947e-06 90.7825 0 73.3672C0 55.48 14.5005 40.9795 32.3877 40.9795C33.0019 40.9795 33.612 40.9975 34.2178 41.0312C36.9052 23.4597 52.0853 10 70.4082 10Z"/>
</mask>
<path d="M70.4082 10C88.7184 10 103.889 23.4414 106.592 40.9951C124.026 41.5131 138 55.8077 138 73.3672C138 90.7827 124.254 104.985 107.02 105.722V105.755H30.9795V105.722C13.7456 104.984 8.02947e-06 90.7825 0 73.3672C0 55.48 14.5005 40.9795 32.3877 40.9795C33.0019 40.9795 33.612 40.9975 34.2178 41.0312C36.9052 23.4597 52.0853 10 70.4082 10Z" fill="url(#paint0_linear_193_380)"/>
<path d="M70.4082 10L70.4082 9H70.4082V10ZM106.592 40.9951L105.603 41.1473L105.73 41.97L106.562 41.9947L106.592 40.9951ZM138 73.3672L139 73.3672V73.3672H138ZM107.02 105.722L106.977 104.723L106.02 104.764V105.722H107.02ZM107.02 105.755V106.755H108.02V105.755H107.02ZM30.9795 105.755H29.9795V106.755H30.9795V105.755ZM30.9795 105.722H31.9795V104.764L31.0222 104.723L30.9795 105.722ZM0 73.3672L-1 73.3672L-1 73.3672L0 73.3672ZM32.3877 40.9795L32.3877 39.9795H32.3877V40.9795ZM34.2178 41.0312L34.1622 42.0297L35.069 42.0802L35.2063 41.1824L34.2178 41.0312ZM70.4082 10L70.4082 11C88.2174 11 102.975 24.0738 105.603 41.1473L106.592 40.9951L107.58 40.8429C104.803 22.8089 89.2195 9.00005 70.4082 9L70.4082 10ZM106.592 40.9951L106.562 41.9947C123.457 42.4967 137 56.3501 137 73.3672H138H139C139 55.2653 124.594 40.5296 106.621 39.9956L106.592 40.9951ZM138 73.3672L137 73.3672C137 90.2446 123.678 104.008 106.977 104.723L107.02 105.722L107.062 106.721C124.829 105.961 139 91.3209 139 73.3672L138 73.3672ZM107.02 105.722H106.02V105.755H107.02H108.02V105.722H107.02ZM107.02 105.755V104.755H30.9795V105.755V106.755H107.02V105.755ZM30.9795 105.755H31.9795V105.722H30.9795H29.9795V105.755H30.9795ZM30.9795 105.722L31.0222 104.723C14.3211 104.008 1.00001 90.2444 1 73.3672L0 73.3672L-1 73.3672C-0.999992 91.3206 13.1702 105.961 30.9367 106.721L30.9795 105.722ZM0 73.3672H1C1 56.0323 15.0528 41.9795 32.3877 41.9795V40.9795V39.9795C13.9482 39.9795 -1 54.9277 -1 73.3672H0ZM32.3877 40.9795L32.3877 41.9795C32.9823 41.9795 33.5739 41.9969 34.1622 42.0297L34.2178 41.0312L34.2734 40.0328C33.6501 39.9981 33.0214 39.9795 32.3877 39.9795L32.3877 40.9795ZM34.2178 41.0312L35.2063 41.1824C37.8202 24.0917 52.5866 11 70.4082 11V10V9C51.584 9 35.9902 22.8277 33.2293 40.8801L34.2178 41.0312Z" fill="url(#paint1_linear_193_380)" mask="url(#path-1-inside-1_193_380)"/>
<path d="M53.6616 115.139L57.6868 113.775L60.0229 116.632L53.8877 118.712L57.988 123.729L54.4937 124.914L51.8027 121.622L50.8964 124.783L46.7725 123.6L47.5585 120.859L43.6398 122.189L41.3039 119.331L48.0573 117.04L43.5437 111.52L47.039 110.335L49.6578 113.538L50.615 110.2L54.7389 111.382L53.6616 115.139Z" fill="#CDDFF3"/>
<path d="M87.147 115.139L91.1721 113.775L93.5083 116.632L87.3731 118.712L91.4733 123.729L87.9781 124.914L85.288 121.622L84.3817 124.783L80.2579 123.6L81.0439 120.859L77.1251 122.189L74.7893 119.331L81.5426 117.04L77.0291 111.52L80.5243 110.335L83.1432 113.538L84.1004 110.2L88.2242 111.382L87.147 115.139Z" fill="#CDDFF3"/>
<defs>
<linearGradient id="paint0_linear_193_380" x1="69" y1="10" x2="69" y2="105.755" gradientUnits="userSpaceOnUse">
<stop stop-color="#6D7883"/>
<stop offset="1" stop-color="#3C4957"/>
</linearGradient>
<linearGradient id="paint1_linear_193_380" x1="56.3265" y1="70.5509" x2="69" y2="105.755" gradientUnits="userSpaceOnUse">
<stop stop-color="#5E6A76"/>
<stop offset="1" stop-color="#11151A"/>
</linearGradient>
</defs>
</svg>
