<svg width="139" height="136" viewBox="0 0 139 136" fill="none" xmlns="http://www.w3.org/2000/svg">
<circle cx="56.2439" cy="65.8703" r="43.8703" fill="#FED536"/>
<mask id="path-2-inside-1_193_257" fill="white">
<path d="M35.0088 65.3882C44.1131 65.3882 51.656 72.0712 53 80.7993C61.6689 81.0566 68.6172 88.1647 68.6172 96.896C68.6171 105.555 61.7829 112.616 53.2139 112.983V113H15.4043V112.983C6.83498 112.616 5.36975e-05 105.555 0 96.896C0 88.0019 7.21043 80.7915 16.1045 80.7915C16.4096 80.7915 16.7127 80.8011 17.0137 80.8179C18.3498 72.0806 25.898 65.3882 35.0088 65.3882Z"/>
</mask>
<path d="M35.0088 65.3882C44.1131 65.3882 51.656 72.0712 53 80.7993C61.6689 81.0566 68.6172 88.1647 68.6172 96.896C68.6171 105.555 61.7829 112.616 53.2139 112.983V113H15.4043V112.983C6.83498 112.616 5.36975e-05 105.555 0 96.896C0 88.0019 7.21043 80.7915 16.1045 80.7915C16.4096 80.7915 16.7127 80.8011 17.0137 80.8179C18.3498 72.0806 25.898 65.3882 35.0088 65.3882Z" fill="url(#paint0_linear_193_257)"/>
<path d="M35.0088 65.3882L35.0088 64.3882H35.0088V65.3882ZM53 80.7993L52.0116 80.9515L52.1383 81.7742L52.9703 81.7989L53 80.7993ZM68.6172 96.896L69.6172 96.896V96.896H68.6172ZM53.2139 112.983L53.1711 111.984L52.2139 112.025V112.983H53.2139ZM53.2139 113V114H54.2139V113H53.2139ZM15.4043 113H14.4043V114H15.4043V113ZM15.4043 112.983H16.4043V112.025L15.447 111.984L15.4043 112.983ZM0 96.896L-1 96.896L-1 96.896L0 96.896ZM16.1045 80.7915L16.1045 79.7915H16.1045V80.7915ZM17.0137 80.8179L16.9581 81.8163L17.8649 81.8668L18.0022 80.969L17.0137 80.8179ZM35.0088 65.3882L35.0088 66.3882C43.612 66.3882 50.7416 72.7037 52.0116 80.9515L53 80.7993L53.9884 80.6471C52.5704 71.4387 44.6141 64.3882 35.0088 64.3882L35.0088 65.3882ZM53 80.7993L52.9703 81.7989C61.1004 82.0402 67.6172 88.7071 67.6172 96.896H68.6172H69.6172C69.6172 87.6224 62.2375 80.073 53.0297 79.7998L53 80.7993ZM68.6172 96.896L67.6172 96.896C67.6171 105.017 61.2074 111.64 53.1711 111.984L53.2139 112.983L53.2566 113.982C62.3583 113.592 69.6171 106.093 69.6172 96.896L68.6172 96.896ZM53.2139 112.983H52.2139V113H53.2139H54.2139V112.983H53.2139ZM53.2139 113V112H15.4043V113V114H53.2139V113ZM15.4043 113H16.4043V112.983H15.4043H14.4043V113H15.4043ZM15.4043 112.983L15.447 111.984C7.4104 111.64 1.00005 105.017 1 96.896L0 96.896L-1 96.896C-0.999943 106.094 6.25957 113.593 15.3616 113.982L15.4043 112.983ZM0 96.896H1C1 88.5542 7.76272 81.7915 16.1045 81.7915V80.7915V79.7915C6.65815 79.7915 -1 87.4497 -1 96.896H0ZM16.1045 80.7915L16.1045 81.7915C16.3887 81.7915 16.6731 81.8005 16.9581 81.8163L17.0137 80.8179L17.0693 79.8194C16.7523 79.8018 16.4306 79.7915 16.1045 79.7915L16.1045 80.7915ZM17.0137 80.8179L18.0022 80.969C19.2647 72.7126 26.3993 66.3882 35.0088 66.3882V65.3882V64.3882C25.3967 64.3882 17.4348 71.4485 16.0252 80.6667L17.0137 80.8179Z" fill="url(#paint1_linear_193_257)" mask="url(#path-2-inside-1_193_257)"/>
<mask id="path-4-inside-2_193_257" fill="white">
<path d="M93.1816 48.9971C105.42 48.9972 115.56 57.981 117.366 69.7139C129.019 70.0597 138.36 79.6145 138.36 91.3516C138.36 102.992 129.173 112.485 117.653 112.978V113H66.8271V112.978C55.3079 112.485 46.1201 102.992 46.1201 91.3516C46.1202 79.3957 55.8127 69.7041 67.7686 69.7041C68.1789 69.7041 68.5865 69.7157 68.9912 69.7383C70.7874 57.9932 80.9344 48.9971 93.1816 48.9971Z"/>
</mask>
<path d="M93.1816 48.9971C105.42 48.9972 115.56 57.981 117.366 69.7139C129.019 70.0597 138.36 79.6145 138.36 91.3516C138.36 102.992 129.173 112.485 117.653 112.978V113H66.8271V112.978C55.3079 112.485 46.1201 102.992 46.1201 91.3516C46.1202 79.3957 55.8127 69.7041 67.7686 69.7041C68.1789 69.7041 68.5865 69.7157 68.9912 69.7383C70.7874 57.9932 80.9344 48.9971 93.1816 48.9971Z" fill="url(#paint2_linear_193_257)"/>
<path d="M93.1816 48.9971L93.1817 47.9971H93.1816V48.9971ZM117.366 69.7139L116.378 69.8661L116.505 70.6887L117.337 70.7134L117.366 69.7139ZM138.36 91.3516L139.36 91.3516L139.36 91.3516L138.36 91.3516ZM117.653 112.978L117.611 111.978L116.653 112.019V112.978H117.653ZM117.653 113V114H118.653V113H117.653ZM66.8271 113H65.8271V114H66.8271V113ZM66.8271 112.978H67.8271V112.019L66.8699 111.978L66.8271 112.978ZM46.1201 91.3516L45.1201 91.3516V91.3516H46.1201ZM67.7686 69.7041L67.7686 68.7041H67.7686V69.7041ZM68.9912 69.7383L68.9356 70.7367L69.8424 70.7872L69.9797 69.8895L68.9912 69.7383ZM93.1816 48.9971L93.1816 49.9971C104.919 49.9972 114.645 58.6135 116.378 69.8661L117.366 69.7139L118.355 69.5617C116.474 57.3485 105.921 47.9972 93.1817 47.9971L93.1816 48.9971ZM117.366 69.7139L117.337 70.7134C128.451 71.0433 137.36 80.1569 137.36 91.3516L138.36 91.3516L139.36 91.3516C139.36 79.0721 129.588 69.0761 117.396 68.7143L117.366 69.7139ZM138.36 91.3516H137.36C137.36 102.454 128.597 111.508 117.611 111.978L117.653 112.978L117.696 113.977C129.748 113.461 139.36 103.53 139.36 91.3516H138.36ZM117.653 112.978H116.653V113H117.653H118.653V112.978H117.653ZM117.653 113V112H66.8271V113V114H117.653V113ZM66.8271 113H67.8271V112.978H66.8271H65.8271V113H66.8271ZM66.8271 112.978L66.8699 111.978C55.8833 111.508 47.1201 102.454 47.1201 91.3516H46.1201H45.1201C45.1201 103.53 54.7324 113.461 66.7844 113.977L66.8271 112.978ZM46.1201 91.3516L47.1201 91.3516C47.1202 79.9481 56.3649 70.7041 67.7686 70.7041V69.7041V68.7041C55.2604 68.7041 45.1202 78.8434 45.1201 91.3516L46.1201 91.3516ZM67.7686 69.7041L67.7685 70.7041C68.16 70.7041 68.5491 70.7152 68.9356 70.7367L68.9912 69.7383L69.0468 68.7398C68.624 68.7163 68.1978 68.7041 67.7686 68.7041L67.7686 69.7041ZM68.9912 69.7383L69.9797 69.8895C71.7024 58.6253 81.4357 49.9971 93.1816 49.9971V48.9971V47.9971C80.4331 47.9971 69.8725 57.3611 68.0027 69.5871L68.9912 69.7383Z" fill="url(#paint3_linear_193_257)" mask="url(#path-4-inside-2_193_257)"/>
<defs>
<linearGradient id="paint0_linear_193_257" x1="32.9082" y1="79.3918" x2="39.9101" y2="96.1961" gradientUnits="userSpaceOnUse">
<stop stop-color="#B9D3EF"/>
<stop offset="1" stop-color="#7F9FC2"/>
</linearGradient>
<linearGradient id="paint1_linear_193_257" x1="28.007" y1="95.496" x2="34.3087" y2="113" gradientUnits="userSpaceOnUse">
<stop stop-color="#BDD6F0"/>
<stop offset="1" stop-color="#73A2D3"/>
</linearGradient>
<linearGradient id="paint2_linear_193_257" x1="90.3578" y1="67.8214" x2="99.7699" y2="90.4107" gradientUnits="userSpaceOnUse">
<stop stop-color="#B9D3EF"/>
<stop offset="1" stop-color="#7F9FC2"/>
</linearGradient>
<linearGradient id="paint3_linear_193_257" x1="83.7692" y1="89.4695" x2="92.2401" y2="113" gradientUnits="userSpaceOnUse">
<stop stop-color="#BDD6F0"/>
<stop offset="1" stop-color="#73A2D3"/>
</linearGradient>
</defs>
</svg>
