<svg width="138" height="136" viewBox="0 0 138 136" fill="none" xmlns="http://www.w3.org/2000/svg">
<circle cx="52.3461" cy="64.3461" r="45.3461" fill="#FED536"/>
<mask id="path-2-inside-1_193_258" fill="white">
<path d="M83.5728 49.2297C96.5315 49.2298 107.268 58.743 109.181 71.1663C121.52 71.5324 131.41 81.6497 131.411 94.0774C131.411 106.403 121.682 116.455 109.485 116.977V117H55.6675V116.977C43.4706 116.455 33.7427 106.403 33.7427 94.0774C33.7429 81.4181 44.0052 71.1556 56.6646 71.1555C57.0991 71.1555 57.5309 71.1688 57.9595 71.1926C59.8613 58.7563 70.6048 49.2297 83.5728 49.2297Z"/>
</mask>
<path d="M83.5728 49.2297C96.5315 49.2298 107.268 58.743 109.181 71.1663C121.52 71.5324 131.41 81.6497 131.411 94.0774C131.411 106.403 121.682 116.455 109.485 116.977V117H55.6675V116.977C43.4706 116.455 33.7427 106.403 33.7427 94.0774C33.7429 81.4181 44.0052 71.1556 56.6646 71.1555C57.0991 71.1555 57.5309 71.1688 57.9595 71.1926C59.8613 58.7563 70.6048 49.2297 83.5728 49.2297Z" fill="url(#paint0_linear_193_258)"/>
<path d="M83.5728 49.2297L83.5728 48.2297H83.5728V49.2297ZM109.181 71.1663L108.193 71.3185L108.319 72.1411L109.151 72.1658L109.181 71.1663ZM131.411 94.0774L132.411 94.0774L132.411 94.0774L131.411 94.0774ZM109.485 116.977L109.442 115.978L108.485 116.019V116.977H109.485ZM109.485 117V118H110.485V117H109.485ZM55.6675 117H54.6675V118H55.6675V117ZM55.6675 116.977H56.6675V116.019L55.7102 115.978L55.6675 116.977ZM33.7427 94.0774L32.7427 94.0774V94.0774H33.7427ZM56.6646 71.1555L56.6646 70.1555L56.6645 70.1555L56.6646 71.1555ZM57.9595 71.1926L57.9039 72.1911L58.8107 72.2416L58.948 71.3438L57.9595 71.1926ZM83.5728 49.2297L83.5727 50.2297C96.0304 50.2298 106.354 59.3754 108.193 71.3185L109.181 71.1663L110.17 71.0141C108.183 58.1105 97.0326 48.2298 83.5728 48.2297L83.5728 49.2297ZM109.181 71.1663L109.151 72.1658C120.952 72.516 130.41 82.1921 130.411 94.0774L131.411 94.0774L132.411 94.0774C132.41 81.1074 122.089 70.5488 109.211 70.1667L109.181 71.1663ZM131.411 94.0774H130.411C130.411 105.865 121.107 115.479 109.442 115.978L109.485 116.977L109.528 117.976C122.258 117.431 132.411 106.941 132.411 94.0774H131.411ZM109.485 116.977H108.485V117H109.485H110.485V116.977H109.485ZM109.485 117V116H55.6675V117V118H109.485V117ZM55.6675 117H56.6675V116.977H55.6675H54.6675V117H55.6675ZM55.6675 116.977L55.7102 115.978C44.0462 115.478 34.7427 105.865 34.7427 94.0774H33.7427H32.7427C32.7427 106.941 42.8951 117.431 55.6247 117.976L55.6675 116.977ZM33.7427 94.0774L34.7427 94.0774C34.7429 81.9704 44.5575 72.1556 56.6646 72.1555L56.6646 71.1555L56.6645 70.1555C43.4529 70.1556 32.743 80.8658 32.7427 94.0774L33.7427 94.0774ZM56.6646 71.1555V72.1555C57.0788 72.1555 57.492 72.1681 57.9039 72.1911L57.9595 71.1926L58.0151 70.1942C57.5698 70.1694 57.1194 70.1555 56.6646 70.1555V71.1555ZM57.9595 71.1926L58.948 71.3438C60.7763 59.3883 71.1061 50.2297 83.5728 50.2297V49.2297V48.2297C70.1034 48.2297 58.9464 58.1244 56.971 71.0415L57.9595 71.1926Z" fill="url(#paint1_linear_193_258)" mask="url(#path-2-inside-1_193_258)"/>
<defs>
<linearGradient id="paint0_linear_193_258" x1="80.5834" y1="69.1622" x2="90.5498" y2="93.0811" gradientUnits="userSpaceOnUse">
<stop stop-color="#B9D3EF"/>
<stop offset="1" stop-color="#7F9FC2"/>
</linearGradient>
<linearGradient id="paint1_linear_193_258" x1="73.6072" y1="92.0846" x2="82.5769" y2="117" gradientUnits="userSpaceOnUse">
<stop stop-color="#BDD6F0"/>
<stop offset="1" stop-color="#73A2D3"/>
</linearGradient>
</defs>
</svg>
