<svg width="138" height="136" viewBox="0 0 138 136" fill="none" xmlns="http://www.w3.org/2000/svg">
<mask id="path-1-inside-1_193_362" fill="white">
<path d="M70.4082 3C88.7185 3.00002 103.889 16.4413 106.592 33.9951C124.026 34.513 138 48.8077 138 66.3672C138 83.7828 124.254 97.9858 107.02 98.7227V98.7549H30.9795V98.7217C13.7456 97.9843 5.01842e-06 83.7825 0 66.3672C0 48.48 14.5005 33.9795 32.3877 33.9795C33.0019 33.9795 33.612 33.9975 34.2178 34.0312C36.9052 16.4597 52.0853 3 70.4082 3Z"/>
</mask>
<path d="M70.4082 3C88.7185 3.00002 103.889 16.4413 106.592 33.9951C124.026 34.513 138 48.8077 138 66.3672C138 83.7828 124.254 97.9858 107.02 98.7227V98.7549H30.9795V98.7217C13.7456 97.9843 5.01842e-06 83.7825 0 66.3672C0 48.48 14.5005 33.9795 32.3877 33.9795C33.0019 33.9795 33.612 33.9975 34.2178 34.0312C36.9052 16.4597 52.0853 3 70.4082 3Z" fill="url(#paint0_linear_193_362)"/>
<path d="M70.4082 3L70.4082 2H70.4082V3ZM106.592 33.9951L105.603 34.1473L105.73 34.97L106.562 34.9947L106.592 33.9951ZM138 66.3672L139 66.3672V66.3672H138ZM107.02 98.7227L106.977 97.7236L106.02 97.7645V98.7227H107.02ZM107.02 98.7549V99.7549H108.02V98.7549H107.02ZM30.9795 98.7549H29.9795V99.7549H30.9795V98.7549ZM30.9795 98.7217H31.9795V97.7635L31.0222 97.7226L30.9795 98.7217ZM0 66.3672L-1 66.3672L-1 66.3672L0 66.3672ZM32.3877 33.9795L32.3877 32.9795H32.3877V33.9795ZM34.2178 34.0312L34.1622 35.0297L35.069 35.0802L35.2063 34.1824L34.2178 34.0312ZM70.4082 3L70.4082 4C88.2174 4.00002 102.975 17.0738 105.603 34.1473L106.592 33.9951L107.58 33.8429C104.803 15.8089 89.2195 2.00002 70.4082 2L70.4082 3ZM106.592 33.9951L106.562 34.9947C123.457 35.4966 137 49.3501 137 66.3672H138H139C139 48.2653 124.594 33.5295 106.621 32.9956L106.592 33.9951ZM138 66.3672L137 66.3672C137 83.2448 123.678 97.0095 106.977 97.7236L107.02 98.7227L107.062 99.7217C124.829 98.9621 139 84.3209 139 66.3672L138 66.3672ZM107.02 98.7227H106.02V98.7549H107.02H108.02V98.7227H107.02ZM107.02 98.7549V97.7549H30.9795V98.7549V99.7549H107.02V98.7549ZM30.9795 98.7549H31.9795V98.7217H30.9795H29.9795V98.7549H30.9795ZM30.9795 98.7217L31.0222 97.7226C14.3211 97.0081 1 83.2444 1 66.3672L0 66.3672L-1 66.3672C-0.999995 84.3206 13.1702 98.9606 30.9367 99.7208L30.9795 98.7217ZM0 66.3672H1C1 49.0323 15.0528 34.9795 32.3877 34.9795V33.9795V32.9795C13.9482 32.9795 -1 47.9277 -1 66.3672H0ZM32.3877 33.9795L32.3877 34.9795C32.9823 34.9795 33.5739 34.9969 34.1622 35.0297L34.2178 34.0312L34.2734 33.0328C33.6501 32.9981 33.0214 32.9795 32.3877 32.9795L32.3877 33.9795ZM34.2178 34.0312L35.2063 34.1824C37.8202 17.0917 52.5866 4 70.4082 4V3V2C51.584 2 35.9902 15.8277 33.2293 33.8801L34.2178 34.0312Z" fill="url(#paint1_linear_193_362)" mask="url(#path-1-inside-1_193_362)"/>
<path d="M45.6618 116.474C45.6618 119.932 43.1631 122.735 40.0809 122.735C36.9986 122.735 34.5 119.932 34.5 116.474C34.5 113.016 38.4651 107.53 40.0809 105.485C41.3149 107.785 45.6618 113.016 45.6618 116.474Z" fill="#4C95E3"/>
<path d="M77.1178 126.621C77.1178 130.079 74.6192 132.882 71.5369 132.882C68.4547 132.882 65.9561 130.079 65.9561 126.621C65.9561 123.163 69.9211 117.677 71.5369 115.632C72.7709 117.932 77.1178 123.163 77.1178 126.621Z" fill="#4C95E3"/>
<path d="M108.573 112.415C108.573 115.873 106.075 118.677 102.993 118.677C99.9103 118.677 97.4116 115.873 97.4116 112.415C97.4116 108.957 101.377 103.471 102.993 101.427C104.227 103.727 108.573 108.957 108.573 112.415Z" fill="#4C95E3"/>
<defs>
<linearGradient id="paint0_linear_193_362" x1="69" y1="3" x2="69" y2="98.7549" gradientUnits="userSpaceOnUse">
<stop stop-color="#6D7883"/>
<stop offset="1" stop-color="#3C4957"/>
</linearGradient>
<linearGradient id="paint1_linear_193_362" x1="56.3265" y1="63.5509" x2="69" y2="98.755" gradientUnits="userSpaceOnUse">
<stop stop-color="#5E6A76"/>
<stop offset="1" stop-color="#11151A"/>
</linearGradient>
</defs>
</svg>
