<svg width="138" height="136" viewBox="0 0 138 136" fill="none" xmlns="http://www.w3.org/2000/svg">
<path d="M68 114C70.2091 114 72 115.791 72 118V132C72 134.209 70.2091 136 68 136C65.7909 136 64 134.209 64 132V118C64 115.791 65.7909 114 68 114ZM29.9824 100.693C31.5445 99.1313 34.0776 99.1313 35.6396 100.693C37.2017 102.255 37.2017 104.788 35.6396 106.351L25.7402 116.25C24.1781 117.812 21.6451 117.812 20.083 116.25C18.5209 114.688 18.521 112.155 20.083 110.593L29.9824 100.693ZM100.693 100.693C102.255 99.1313 104.788 99.1313 106.351 100.693L116.25 110.593C117.812 112.155 117.812 114.688 116.25 116.25C114.688 117.812 112.155 117.812 110.593 116.25L100.693 106.351C99.1313 104.788 99.1313 102.255 100.693 100.693ZM68 29C89.5391 29 107 46.4609 107 68C107 89.5391 89.5391 107 68 107C46.4609 107 29 89.5391 29 68C29 46.4609 46.4609 29 68 29ZM18 64C20.2091 64 22 65.7909 22 68C22 70.2091 20.2091 72 18 72H4C1.79086 72 0 70.2091 0 68C0 65.7909 1.79086 64 4 64H18ZM132 64C134.209 64 136 65.7909 136 68C136 70.2091 134.209 72 132 72H118C115.791 72 114 70.2091 114 68C114 65.7909 115.791 64 118 64H132ZM20.083 20.083C21.6451 18.5209 24.1781 18.521 25.7402 20.083L35.6396 29.9824C37.2017 31.5445 37.2017 34.0776 35.6396 35.6396C34.0776 37.2017 31.5445 37.2017 29.9824 35.6396L20.083 25.7402C18.521 24.1781 18.5209 21.6451 20.083 20.083ZM110.593 20.083C112.155 18.521 114.688 18.5209 116.25 20.083C117.812 21.6451 117.812 24.1781 116.25 25.7402L106.351 35.6396C104.788 37.2017 102.255 37.2017 100.693 35.6396C99.1313 34.0776 99.1313 31.5445 100.693 29.9824L110.593 20.083ZM68 0C70.2091 0 72 1.79086 72 4V18C72 20.2091 70.2091 22 68 22C65.7909 22 64 20.2091 64 18V4C64 1.79086 65.7909 0 68 0Z" fill="#FED536"/>
</svg>
