<svg width="138" height="135" viewBox="0 0 138 135" fill="none" xmlns="http://www.w3.org/2000/svg">
<mask id="path-1-inside-1_193_245" fill="white">
<path d="M70.4082 0C88.7184 4.85389e-05 103.889 13.4414 106.592 30.9951C124.026 31.5131 138 45.8077 138 63.3672C138 80.7827 124.254 94.9847 107.02 95.7217V95.7549H30.9795V95.7217C13.7456 94.9843 8.02947e-06 80.7825 0 63.3672C0 45.48 14.5005 30.9795 32.3877 30.9795C33.0019 30.9795 33.612 30.9975 34.2178 31.0312C36.9052 13.4597 52.0853 0 70.4082 0Z"/>
</mask>
<path d="M70.4082 0C88.7184 4.85389e-05 103.889 13.4414 106.592 30.9951C124.026 31.5131 138 45.8077 138 63.3672C138 80.7827 124.254 94.9847 107.02 95.7217V95.7549H30.9795V95.7217C13.7456 94.9843 8.02947e-06 80.7825 0 63.3672C0 45.48 14.5005 30.9795 32.3877 30.9795C33.0019 30.9795 33.612 30.9975 34.2178 31.0312C36.9052 13.4597 52.0853 0 70.4082 0Z" fill="url(#paint0_linear_193_245)"/>
<path d="M70.4082 0L70.4082 -1H70.4082V0ZM106.592 30.9951L105.603 31.1473L105.73 31.97L106.562 31.9947L106.592 30.9951ZM138 63.3672L139 63.3672V63.3672H138ZM107.02 95.7217L106.977 94.7226L106.02 94.7635V95.7217H107.02ZM107.02 95.7549V96.7549H108.02V95.7549H107.02ZM30.9795 95.7549H29.9795V96.7549H30.9795V95.7549ZM30.9795 95.7217H31.9795V94.7635L31.0222 94.7226L30.9795 95.7217ZM0 63.3672L-1 63.3672L-1 63.3672L0 63.3672ZM32.3877 30.9795L32.3877 29.9795H32.3877V30.9795ZM34.2178 31.0312L34.1622 32.0297L35.069 32.0802L35.2063 31.1824L34.2178 31.0312ZM70.4082 0L70.4082 1C88.2174 1.00005 102.975 14.0738 105.603 31.1473L106.592 30.9951L107.58 30.8429C104.803 12.8089 89.2195 -0.99995 70.4082 -1L70.4082 0ZM106.592 30.9951L106.562 31.9947C123.457 32.4967 137 46.3501 137 63.3672H138H139C139 45.2653 124.594 30.5296 106.621 29.9956L106.592 30.9951ZM138 63.3672L137 63.3672C137 80.2446 123.678 94.0084 106.977 94.7226L107.02 95.7217L107.062 96.7208C124.829 95.961 139 81.3209 139 63.3672L138 63.3672ZM107.02 95.7217H106.02V95.7549H107.02H108.02V95.7217H107.02ZM107.02 95.7549V94.7549H30.9795V95.7549V96.7549H107.02V95.7549ZM30.9795 95.7549H31.9795V95.7217H30.9795H29.9795V95.7549H30.9795ZM30.9795 95.7217L31.0222 94.7226C14.3211 94.0081 1.00001 80.2444 1 63.3672L0 63.3672L-1 63.3672C-0.999992 81.3206 13.1702 95.9606 30.9367 96.7208L30.9795 95.7217ZM0 63.3672H1C1 46.0323 15.0528 31.9795 32.3877 31.9795V30.9795V29.9795C13.9482 29.9795 -1 44.9277 -1 63.3672H0ZM32.3877 30.9795L32.3877 31.9795C32.9823 31.9795 33.5739 31.9969 34.1622 32.0297L34.2178 31.0312L34.2734 30.0328C33.6501 29.9981 33.0214 29.9795 32.3877 29.9795L32.3877 30.9795ZM34.2178 31.0312L35.2063 31.1824C37.8202 14.0917 52.5866 1 70.4082 1V0V-1C51.584 -1 35.9902 12.8277 33.2293 30.8801L34.2178 31.0312Z" fill="url(#paint1_linear_193_245)" mask="url(#path-1-inside-1_193_245)"/>
<path d="M58.8532 118.548C58.8532 122.006 56.3545 124.809 53.2723 124.809C50.1901 124.809 47.6914 122.006 47.6914 118.548C47.6914 115.09 51.6565 109.603 53.2723 107.559C54.5063 109.859 58.8532 115.09 58.8532 118.548Z" fill="#4C95E3"/>
<path d="M29.7924 113.458L34.7188 115.109L20.9071 131.838L24.1196 117.213L19.1931 115.564L33.0058 98.8342L29.7924 113.458Z" fill="#FED536"/>
<path d="M98.7924 114.472L103.719 116.123L89.9071 132.853L93.1196 118.228L88.1931 116.578L102.006 99.8488L98.7924 114.472Z" fill="#FED536"/>
<path d="M123.794 109.415C123.794 112.873 121.295 115.677 118.213 115.677C115.131 115.677 112.632 112.873 112.632 109.415C112.632 105.957 116.597 100.471 118.213 98.4265C119.447 100.727 123.794 105.957 123.794 109.415Z" fill="#4C95E3"/>
<path d="M80.1618 110.43C80.1618 113.888 77.6631 116.691 74.5809 116.691C71.4986 116.691 69 113.888 69 110.43C69 106.972 72.9651 101.486 74.5809 99.4412C75.8149 101.741 80.1618 106.972 80.1618 110.43Z" fill="#4C95E3"/>
<defs>
<linearGradient id="paint0_linear_193_245" x1="69" y1="0" x2="69" y2="95.7549" gradientUnits="userSpaceOnUse">
<stop stop-color="#6D7883"/>
<stop offset="1" stop-color="#3C4957"/>
</linearGradient>
<linearGradient id="paint1_linear_193_245" x1="56.3265" y1="60.5509" x2="69" y2="95.755" gradientUnits="userSpaceOnUse">
<stop stop-color="#5E6A76"/>
<stop offset="1" stop-color="#11151A"/>
</linearGradient>
</defs>
</svg>
